<svg width="1439" height="659" viewBox="0 0 1439 659" fill="none" xmlns="http://www.w3.org/2000/svg">
<g clip-path="url(#clip0_527_3)">
<path d="M60 0H0V60M60 0V60M60 0H120M60 60H0M60 60V120M60 60H120M0 60V120M60 120H0M60 120V180M60 120H120M0 120V180M60 180H0M60 180V240M60 180H120M0 180V240M60 240H0M60 240V300M60 240H120M0 240V300M60 300H0M60 300V360M60 300H120M0 300V360M60 360H0M60 360V420M60 360H120M0 360V420M60 420H0M60 420V480M60 420H120M0 420V480M60 480H0M60 480V540M60 480H120M0 480V540M60 540H0M60 540V600M60 540H120M0 540V600M60 600H0M60 600V660M60 600H120M0 600V660H60M60 660H120M120 0V60M120 0H180M120 60V120M120 60H180M120 120V180M120 120H180M120 180V240M120 180H180M120 240V300M120 240H180M120 300V360M120 300H180M120 360V420M120 360H180M120 420V480M120 420H180M120 480V540M120 480H180M120 540V600M120 540H180M120 600V660M120 600H180M120 660H180M180 0V60M180 0H240M180 60V120M180 60H240M180 120V180M180 120H240M180 180V240M180 180H240M180 240V300M180 240H240M180 300V360M180 300H240M180 360V420M180 360H240M180 420V480M180 420H240M180 480V540M180 480H240M180 540V600M180 540H240M180 600V660M180 600H240M180 660H240M240 0V60M240 0H300M240 60V120M240 60H300M240 120V180M240 120H300M240 180V240M240 180H300M240 240V300M240 240H300M240 300V360M240 300H300M240 360V420M240 360H300M240 420V480M240 420H300M240 480V540M240 480H300M240 540V600M240 540H300M240 600V660M240 600H300M240 660H300M300 0V60M300 0H360M300 60V120M300 60H360M300 120V180M300 120H360M300 180V240M300 180H360M300 240V300M300 240H360M300 300V360M300 300H360M300 360V420M300 360H360M300 420V480M300 420H360M300 480V540M300 480H360M300 540V600M300 540H360M300 600V660M300 600H360M300 660H360M360 0V60M360 0H420M360 60V120M360 60H420M360 120V180M360 120H420M360 180V240M360 180H420M360 240V300M360 240H420M360 300V360M360 300H420M360 360V420M360 360H420M360 420V480M360 420H420M360 480V540M360 480H420M360 540V600M360 540H420M360 600V660M360 600H420M360 660H420M420 0V60M420 0H480M420 60V120M420 60H480M420 120V180M420 120H480M420 180V240M420 180H480M420 240V300M420 240H480M420 300V360M420 300H480M420 360V420M420 360H480M420 420V480M420 420H480M420 480V540M420 480H480M420 540V600M420 540H480M420 600V660M420 600H480M420 660H480M480 0V60M480 0H540M480 60V120M480 60H540M480 120V180M480 120H540M480 180V240M480 180H540M480 240V300M480 240H540M480 300V360M480 300H540M480 360V420M480 360H540M480 420V480M480 420H540M480 480V540M480 480H540M480 540V600M480 540H540M480 600V660M480 600H540M480 660H540M540 0V60M540 0H600M540 60V120M540 60H600M540 120V180M540 120H600M540 180V240M540 180H600M540 240V300M540 240H600M540 300V360M540 300H600M540 360V420M540 360H600M540 420V480M540 420H600M540 480V540M540 480H600M540 540V600M540 540H600M540 600V660M540 600H600M540 660H600M600 0V60M600 0H660M600 60V120M600 60H660M600 120V180M600 120H660M600 180V240M600 180H660M600 240V300M600 240H660M600 300V360M600 300H660M600 360V420M600 360H660M600 420V480M600 420H660M600 480V540M600 480H660M600 540V600M600 540H660M600 600V660M600 600H660M600 660H660M660 0V60M660 0H720M660 60V120M660 60H720M660 120V180M660 120H720M660 180V240M660 180H720M660 240V300M660 240H720M660 300V360M660 300H720M660 360V420M660 360H720M660 420V480M660 420H720M660 480V540M660 480H720M660 540V600M660 540H720M660 600V660M660 600H720M660 660H720M720 0V60M720 0H780M720 60V120M720 60H780M720 120V180M720 120H780M720 180V240M720 180H780M720 240V300M720 240H780M720 300V360M720 300H780M720 360V420M720 360H780M720 420V480M720 420H780M720 480V540M720 480H780M720 540V600M720 540H780M720 600V660M720 600H780M720 660H780M780 0V60M780 0H840M780 60V120M780 60H840M780 120V180M780 120H840M780 180V240M780 180H840M780 240V300M780 240H840M780 300V360M780 300H840M780 360V420M780 360H840M780 420V480M780 420H840M780 480V540M780 480H840M780 540V600M780 540H840M780 600V660M780 600H840M780 660H840M840 0V60M840 0H900M840 60V120M840 60H900M840 120V180M840 120H900M840 180V240M840 180H900M840 240V300M840 240H900M840 300V360M840 300H900M840 360V420M840 360H900M840 420V480M840 420H900M840 480V540M840 480H900M840 540V600M840 540H900M840 600V660M840 600H900M840 660H900M900 0V60M900 0H960M900 60V120M900 60H960M900 120V180M900 120H960M900 180V240M900 180H960M900 240V300M900 240H960M900 300V360M900 300H960M900 360V420M900 360H960M900 420V480M900 420H960M900 480V540M900 480H960M900 540V600M900 540H960M900 600V660M900 600H960M900 660H960M960 0V60M960 0H1020M960 60V120M960 60H1020M960 120V180M960 120H1020M960 180V240M960 180H1020M960 240V300M960 240H1020M960 300V360M960 300H1020M960 360V420M960 360H1020M960 420V480M960 420H1020M960 480V540M960 480H1020M960 540V600M960 540H1020M960 600V660M960 600H1020M960 660H1020M1020 0V60M1020 0H1080M1020 60V120M1020 60H1080M1020 120V180M1020 120H1080M1020 180V240M1020 180H1080M1020 240V300M1020 240H1080M1020 300V360M1020 300H1080M1020 360V420M1020 360H1080M1020 420V480M1020 420H1080M1020 480V540M1020 480H1080M1020 540V600M1020 540H1080M1020 600V660M1020 600H1080M1020 660H1080M1080 0V60M1080 0H1140M1080 60V120M1080 60H1140M1080 120V180M1080 120H1140M1080 180V240M1080 180H1140M1080 240V300M1080 240H1140M1080 300V360M1080 300H1140M1080 360V420M1080 360H1140M1080 420V480M1080 420H1140M1080 480V540M1080 480H1140M1080 540V600M1080 540H1140M1080 600V660M1080 600H1140M1080 660H1140M1140 0V60M1140 0H1200M1140 60V120M1140 60H1200M1140 120V180M1140 120H1200M1140 180V240M1140 180H1200M1140 240V300M1140 240H1200M1140 300V360M1140 300H1200M1140 360V420M1140 360H1200M1140 420V480M1140 420H1200M1140 480V540M1140 480H1200M1140 540V600M1140 540H1200M1140 600V660M1140 600H1200M1140 660H1200M1200 0V60M1200 0H1260M1200 60V120M1200 60H1260M1200 120V180M1200 120H1260M1200 180V240M1200 180H1260M1200 240V300M1200 240H1260M1200 300V360M1200 300H1260M1200 360V420M1200 360H1260M1200 420V480M1200 420H1260M1200 480V540M1200 480H1260M1200 540V600M1200 540H1260M1200 600V660M1200 600H1260M1200 660H1260M1260 0V60M1260 0H1320M1260 60V120M1260 60H1320M1260 120V180M1260 120H1320M1260 180V240M1260 180H1320M1260 240V300M1260 240H1320M1260 300V360M1260 300H1320M1260 360V420M1260 360H1320M1260 420V480M1260 420H1320M1260 480V540M1260 480H1320M1260 540V600M1260 540H1320M1260 600V660M1260 600H1320M1260 660H1320M1320 0V60M1320 0H1380M1320 60V120M1320 60H1380M1320 120V180M1320 120H1380M1320 180V240M1320 180H1380M1320 240V300M1320 240H1380M1320 300V360M1320 300H1380M1320 360V420M1320 360H1380M1320 420V480M1320 420H1380M1320 480V540M1320 480H1380M1320 540V600M1320 540H1380M1320 600V660M1320 600H1380M1320 660H1380M1380 0V60M1380 0H1440V60M1380 60V120M1380 60H1440M1380 120V180M1380 120H1440M1380 180V240M1380 180H1440M1380 240V300M1380 240H1440M1380 300V360M1380 300H1440M1380 360V420M1380 360H1440M1380 420V480M1380 420H1440M1380 480V540M1380 480H1440M1380 540V600M1380 540H1440M1380 600V660M1380 600H1440M1380 660H1440V600M1440 60V120M1440 120V180M1440 180V240M1440 240V300M1440 300V360M1440 360V420M1440 420V480M1440 480V540M1440 540V600" stroke="#725DEE" stroke-width="2"/>
</g>
<defs>
<clipPath id="clip0_527_3">
<rect width="1439" height="659" fill="white"/>
</clipPath>
</defs>
</svg>
