<svg width="48" height="44" viewBox="0 0 48 44" fill="none" xmlns="http://www.w3.org/2000/svg">
<path d="M15.9 8.92L14.46 17.08H31.5L29.88 25.96H12.84L11.4 34.12H30.36L28.8 43H0.480011L8.10001 0.0400009H36.42L34.86 8.92H15.9Z" fill="#8A2BE2"/>
<path d="M41.5622 43.36C39.9622 43.36 38.6022 42.8 37.4822 41.68C36.3622 40.56 35.8022 39.2 35.8022 37.6C35.8022 36 36.3622 34.64 37.4822 33.52C38.6022 32.4 39.9622 31.84 41.5622 31.84C43.1622 31.84 44.5222 32.4 45.6422 33.52C46.7622 34.64 47.3222 36 47.3222 37.6C47.3222 39.2 46.7622 40.56 45.6422 41.68C44.5222 42.8 43.1622 43.36 41.5622 43.36Z" fill="#8A2BE2"/>
</svg>
