<svg width="617" height="118" viewBox="0 0 617 118" fill="none" xmlns="http://www.w3.org/2000/svg">
    <path fill-rule="evenodd" clip-rule="evenodd"
        d="M12.8413 26.6552C13.399 25.3086 14.3436 24.1576 15.5556 23.3479C16.7676 22.5382 18.1924 22.1061 19.65 22.1063H68.775C78.5466 22.1063 87.9179 25.988 94.8275 32.8975C101.737 39.8071 105.619 49.1784 105.619 58.95C105.619 68.7216 101.737 78.0929 94.8275 85.0025C87.9179 91.912 78.5466 95.7938 68.775 95.7938H24.5625C22.6082 95.7938 20.7339 95.0174 19.352 93.6355C17.9701 92.2536 17.1938 90.3793 17.1938 88.425C17.1938 86.4707 17.9701 84.5964 19.352 83.2145C20.7339 81.8326 22.6082 81.0563 24.5625 81.0563H68.775C74.6379 81.0563 80.2608 78.7272 84.4065 74.5815C88.5522 70.4358 90.8812 64.8129 90.8812 58.95C90.8812 53.0871 88.5522 47.4642 84.4065 43.3185C80.2608 39.1728 74.6379 36.8438 68.775 36.8438H37.4382L42.0559 41.4615C43.3975 42.8519 44.1394 44.7136 44.1217 46.6457C44.104 48.5777 43.3282 50.4256 41.9613 51.7911C40.5944 53.1567 38.7459 53.9308 36.8138 53.9467C34.8817 53.9626 33.0207 53.219 31.6316 51.876L14.4378 34.6823C13.4081 33.6519 12.7069 32.3395 12.4227 30.9108C12.1385 29.4821 12.2842 28.0012 12.8413 26.6552Z"
        fill="#8672FF" />
    <path
        d="M187.394 23.8379L183.529 45.7429H229.271L224.923 69.5808H179.18L175.314 91.4859H226.211L222.023 115.324H146L166.455 0H242.479L238.291 23.8379H187.394ZM295.981 106.626H294.37C292.437 109.418 289.592 111.995 285.834 114.357C282.075 116.72 277.082 117.901 270.854 117.901C266.13 117.901 261.781 116.934 257.808 115.002C253.835 113.069 250.399 110.438 247.5 107.109C244.6 103.673 242.346 99.7003 240.735 95.1904C239.124 90.6805 238.319 85.7948 238.319 80.5333C238.319 74.3054 239.339 68.3996 241.379 62.816C243.527 57.125 246.533 52.1319 250.399 47.8368C254.264 43.5417 258.882 40.1593 264.251 37.6896C269.619 35.1125 275.633 33.824 282.29 33.824C287.552 33.824 292.33 34.9515 296.625 37.2064C300.92 39.354 303.927 41.9847 305.645 45.0987H307.255V33.824L313.215 0H337.375L317.08 115.324H294.531L295.981 106.626ZM280.518 95.3515C283.095 95.3515 285.672 94.8683 288.25 93.9019C290.827 92.9355 293.082 91.5396 295.014 89.7141C297.055 87.7813 298.665 85.4727 299.846 82.7883C301.135 79.9964 301.779 76.7751 301.779 73.1243C301.779 68.2923 300.115 64.3193 296.786 61.2053C293.565 57.984 289.27 56.3733 283.901 56.3733C280.679 56.3733 277.727 57.0176 275.042 58.3061C272.358 59.4873 270.103 61.098 268.277 63.1381C266.452 65.1783 265.002 67.5406 263.928 70.2251C262.962 72.9095 262.479 75.7013 262.479 78.6005C262.479 83.7547 264.143 87.835 267.472 90.8416C270.908 93.8482 275.257 95.3515 280.518 95.3515ZM391.381 105.338H389.771C386.979 109.525 383.382 112.693 378.979 114.841C374.577 116.881 369.691 117.901 364.322 117.901C360.134 117.901 356.484 117.203 353.37 115.807C350.256 114.411 347.625 112.532 345.477 110.17C343.437 107.807 341.88 105.123 340.806 102.116C339.84 99.0023 339.357 95.781 339.357 92.4523C339.357 90.949 339.41 89.4994 339.518 88.1035C339.733 86.6002 339.947 85.0432 340.162 83.4325L348.538 36.4011H372.698L364.805 80.6944C364.698 81.1239 364.591 81.7682 364.483 82.6272C364.483 83.3788 364.483 84.0768 364.483 84.7211C364.483 87.5129 365.289 89.9826 366.899 92.1301C368.617 94.2777 371.248 95.3515 374.791 95.3515C381.019 95.3515 385.69 93.2576 388.804 89.0699C392.026 84.7748 394.227 79.2985 395.408 72.6411L401.851 36.4011H426.011L412.159 115.324H389.61L391.381 105.338ZM443.864 36.4011H466.413L464.641 46.3872H466.252C469.044 42.9511 472.319 40.0519 476.077 37.6896C479.835 35.3273 484.453 34.1461 489.929 34.1461C492.828 34.1461 495.244 34.522 497.177 35.2736C499.217 35.9179 500.881 36.6695 502.17 37.5285L493.472 58.7893C492.399 58.2524 491.003 57.7156 489.285 57.1787C487.567 56.6418 485.473 56.3733 483.003 56.3733C476.883 56.3733 471.889 58.4672 468.024 62.6549C464.158 66.8427 461.635 72.3189 460.454 79.0837L454.172 115.324H430.012L443.864 36.4011ZM546.975 108.237H545.365C542.895 111.029 540.05 113.337 536.828 115.163C533.607 116.988 529.419 117.901 524.265 117.901C520.185 117.901 516.534 117.257 513.312 115.968C510.091 114.679 507.299 112.908 504.937 110.653C502.682 108.398 500.91 105.767 499.622 102.761C498.441 99.754 497.85 96.4789 497.85 92.9355C497.85 83.9157 501.125 76.8825 507.675 71.8357C514.225 66.6816 523.084 64.1045 534.251 64.1045C538.009 64.1045 541.499 64.4267 544.721 65.0709C547.942 65.7152 551.056 66.4668 554.062 67.3259L554.546 65.232C554.76 64.1582 554.868 63.4066 554.868 62.9771C554.868 60.0779 553.579 57.6619 551.002 55.7291C548.425 53.7963 545.043 52.8299 540.855 52.8299C536.882 52.8299 533.338 53.5815 530.224 55.0848C527.218 56.5881 524.641 58.5746 522.493 61.0443L507.031 49.7696C511.541 44.186 517.017 40.1593 523.46 37.6896C529.902 35.1125 536.721 33.824 543.915 33.824C555.19 33.824 563.78 36.5084 569.686 41.8773C575.592 47.1388 578.545 54.0647 578.545 62.6549C578.545 63.9435 578.437 65.2857 578.222 66.6816C578.115 67.9701 577.954 69.366 577.739 70.8693L569.847 115.324H545.687L546.975 108.237ZM551.163 84.2379C546.224 82.1977 541.123 81.1776 535.862 81.1776C531.889 81.1776 528.614 81.9829 526.037 83.5936C523.46 85.2043 522.171 87.7276 522.171 91.1637C522.171 93.9556 523.191 96.1031 525.231 97.6064C527.379 99.1097 530.01 99.8613 533.124 99.8613C535.486 99.8613 537.687 99.4318 539.727 98.5728C541.875 97.6064 543.7 96.3716 545.204 94.8683C546.814 93.365 548.103 91.7006 549.069 89.8752C550.143 87.9424 550.841 86.0633 551.163 84.2379ZM600.909 116.29C596.614 116.29 592.963 114.787 589.956 111.78C586.95 108.774 585.447 105.123 585.447 100.828C585.447 96.5326 586.95 92.8818 589.956 89.8752C592.963 86.8686 596.614 85.3653 600.909 85.3653C605.204 85.3653 608.855 86.8686 611.861 89.8752C614.868 92.8818 616.371 96.5326 616.371 100.828C616.371 105.123 614.868 108.774 611.861 111.78C608.855 114.787 605.204 116.29 600.909 116.29Z"
        fill="#8672FF" />
</svg>