<svg width="149" height="45" viewBox="0 0 149 45" fill="none" xmlns="http://www.w3.org/2000/svg">
<path d="M16.1575 11.736L15.0055 18.264H28.6375L27.3415 25.368H13.7095L12.5575 31.896H27.7255L26.4775 39H3.82153L9.91753 4.63202H32.5735L31.3255 11.736H16.1575Z" fill="#3A578D"/>
<path d="M48.5178 36.408H48.0378C47.4618 37.24 46.6138 38.008 45.4938 38.712C44.3738 39.416 42.8858 39.768 41.0298 39.768C39.6218 39.768 38.3258 39.48 37.1418 38.904C35.9578 38.328 34.9338 37.544 34.0698 36.552C33.2058 35.528 32.5338 34.344 32.0538 33C31.5738 31.656 31.3338 30.2 31.3338 28.632C31.3338 26.776 31.6378 25.016 32.2458 23.352C32.8858 21.656 33.7818 20.168 34.9338 18.888C36.0858 17.608 37.4618 16.6 39.0618 15.864C40.6618 15.096 42.4538 14.712 44.4378 14.712C46.0058 14.712 47.4298 15.048 48.7098 15.72C49.9898 16.36 50.8858 17.144 51.3978 18.072H51.8778V14.712L53.6538 4.63202H60.8538L54.8058 39H48.0858L48.5178 36.408ZM43.9098 33.048C44.6778 33.048 45.4458 32.904 46.2138 32.616C46.9818 32.328 47.6538 31.912 48.2298 31.368C48.8378 30.792 49.3178 30.104 49.6698 29.304C50.0538 28.472 50.2458 27.512 50.2458 26.424C50.2458 24.984 49.7498 23.8 48.7578 22.872C47.7978 21.912 46.5178 21.432 44.9178 21.432C43.9578 21.432 43.0778 21.624 42.2778 22.008C41.4778 22.36 40.8058 22.84 40.2618 23.448C39.7178 24.056 39.2858 24.76 38.9658 25.56C38.6778 26.36 38.5338 27.192 38.5338 28.056C38.5338 29.592 39.0298 30.808 40.0218 31.704C41.0458 32.6 42.3418 33.048 43.9098 33.048Z" fill="#3A578D"/>
<path d="M76.9484 36.024H76.4684C75.6364 37.272 74.5644 38.216 73.2524 38.856C71.9404 39.464 70.4844 39.768 68.8844 39.768C67.6364 39.768 66.5484 39.56 65.6204 39.144C64.6924 38.728 63.9084 38.168 63.2684 37.464C62.6604 36.76 62.1964 35.96 61.8764 35.064C61.5884 34.136 61.4444 33.176 61.4444 32.184C61.4444 31.736 61.4604 31.304 61.4924 30.888C61.5564 30.44 61.6204 29.976 61.6844 29.496L64.1804 15.48H71.3804L69.0284 28.68C68.9964 28.808 68.9644 29 68.9324 29.256C68.9324 29.48 68.9324 29.688 68.9324 29.88C68.9324 30.712 69.1724 31.448 69.6524 32.088C70.1644 32.728 70.9484 33.048 72.0044 33.048C73.8604 33.048 75.2524 32.424 76.1804 31.176C77.1404 29.896 77.7964 28.264 78.1484 26.28L80.0684 15.48H87.2684L83.1404 39H76.4204L76.9484 36.024Z" fill="#3A578D"/>
<path d="M92.5889 15.48H99.3089L98.7809 18.456H99.2609C100.093 17.432 101.069 16.568 102.189 15.864C103.309 15.16 104.685 14.808 106.317 14.808C107.181 14.808 107.901 14.92 108.477 15.144C109.085 15.336 109.581 15.56 109.965 15.816L107.373 22.152C107.053 21.992 106.637 21.832 106.125 21.672C105.613 21.512 104.989 21.432 104.253 21.432C102.429 21.432 100.941 22.056 99.7889 23.304C98.6369 24.552 97.8849 26.184 97.5329 28.2L95.6609 39H88.4609L92.5889 15.48Z" fill="#3A578D"/>
<path d="M123.318 36.888H122.838C122.102 37.72 121.254 38.408 120.294 38.952C119.334 39.496 118.086 39.768 116.55 39.768C115.334 39.768 114.246 39.576 113.286 39.192C112.326 38.808 111.494 38.28 110.79 37.608C110.118 36.936 109.59 36.152 109.206 35.256C108.854 34.36 108.678 33.384 108.678 32.328C108.678 29.64 109.654 27.544 111.606 26.04C113.558 24.504 116.198 23.736 119.526 23.736C120.646 23.736 121.686 23.832 122.646 24.024C123.606 24.216 124.534 24.44 125.43 24.696L125.574 24.072C125.638 23.752 125.67 23.528 125.67 23.4C125.67 22.536 125.286 21.816 124.518 21.24C123.75 20.664 122.742 20.376 121.494 20.376C120.31 20.376 119.254 20.6 118.326 21.048C117.43 21.496 116.662 22.088 116.022 22.824L111.414 19.464C112.758 17.8 114.39 16.6 116.31 15.864C118.23 15.096 120.262 14.712 122.406 14.712C125.766 14.712 128.326 15.512 130.086 17.112C131.846 18.68 132.726 20.744 132.726 23.304C132.726 23.688 132.694 24.088 132.63 24.504C132.598 24.888 132.55 25.304 132.486 25.752L130.134 39H122.934L123.318 36.888ZM124.566 29.736C123.094 29.128 121.574 28.824 120.006 28.824C118.822 28.824 117.846 29.064 117.078 29.544C116.31 30.024 115.926 30.776 115.926 31.8C115.926 32.632 116.23 33.272 116.838 33.72C117.478 34.168 118.262 34.392 119.19 34.392C119.894 34.392 120.55 34.264 121.158 34.008C121.798 33.72 122.342 33.352 122.79 32.904C123.27 32.456 123.654 31.96 123.942 31.416C124.262 30.84 124.47 30.28 124.566 29.736Z" fill="#3A578D"/>
<path d="M139.39 39.288C138.11 39.288 137.022 38.84 136.126 37.944C135.23 37.048 134.782 35.96 134.782 34.68C134.782 33.4 135.23 32.312 136.126 31.416C137.022 30.52 138.11 30.072 139.39 30.072C140.67 30.072 141.758 30.52 142.654 31.416C143.55 32.312 143.998 33.4 143.998 34.68C143.998 35.96 143.55 37.048 142.654 37.944C141.758 38.84 140.67 39.288 139.39 39.288Z" fill="#3A578D"/>
<circle cx="14.5" cy="14.5" r="14.5" fill="#161616"/>
<mask id="path-3-inside-1_491_380" fill="white">
<path d="M16.1575 11.736L15.0055 18.264H28.6375L27.3415 25.368H13.7095L12.5575 31.896H27.7255L26.4775 39H3.82153L9.91753 4.63202H32.5735L31.3255 11.736H16.1575ZM48.5178 36.408H48.0378C47.4618 37.24 46.6138 38.008 45.4938 38.712C44.3738 39.416 42.8858 39.768 41.0298 39.768C39.6218 39.768 38.3258 39.48 37.1418 38.904C35.9578 38.328 34.9338 37.544 34.0698 36.552C33.2058 35.528 32.5338 34.344 32.0538 33C31.5738 31.656 31.3338 30.2 31.3338 28.632C31.3338 26.776 31.6378 25.016 32.2458 23.352C32.8858 21.656 33.7818 20.168 34.9338 18.888C36.0858 17.608 37.4618 16.6 39.0618 15.864C40.6618 15.096 42.4538 14.712 44.4378 14.712C46.0058 14.712 47.4298 15.048 48.7098 15.72C49.9898 16.36 50.8858 17.144 51.3978 18.072H51.8778V14.712L53.6538 4.63202H60.8538L54.8058 39H48.0858L48.5178 36.408ZM43.9098 33.048C44.6778 33.048 45.4458 32.904 46.2138 32.616C46.9818 32.328 47.6538 31.912 48.2298 31.368C48.8378 30.792 49.3178 30.104 49.6698 29.304C50.0538 28.472 50.2458 27.512 50.2458 26.424C50.2458 24.984 49.7498 23.8 48.7578 22.872C47.7978 21.912 46.5178 21.432 44.9178 21.432C43.9578 21.432 43.0778 21.624 42.2778 22.008C41.4778 22.36 40.8058 22.84 40.2618 23.448C39.7178 24.056 39.2858 24.76 38.9658 25.56C38.6778 26.36 38.5338 27.192 38.5338 28.056C38.5338 29.592 39.0298 30.808 40.0218 31.704C41.0458 32.6 42.3418 33.048 43.9098 33.048ZM76.9484 36.024H76.4684C75.6364 37.272 74.5644 38.216 73.2524 38.856C71.9404 39.464 70.4844 39.768 68.8844 39.768C67.6364 39.768 66.5484 39.56 65.6204 39.144C64.6924 38.728 63.9084 38.168 63.2684 37.464C62.6604 36.76 62.1964 35.96 61.8764 35.064C61.5884 34.136 61.4444 33.176 61.4444 32.184C61.4444 31.736 61.4604 31.304 61.4924 30.888C61.5564 30.44 61.6204 29.976 61.6844 29.496L64.1804 15.48H71.3804L69.0284 28.68C68.9964 28.808 68.9644 29 68.9324 29.256C68.9324 29.48 68.9324 29.688 68.9324 29.88C68.9324 30.712 69.1724 31.448 69.6524 32.088C70.1644 32.728 70.9484 33.048 72.0044 33.048C73.8604 33.048 75.2524 32.424 76.1804 31.176C77.1404 29.896 77.7964 28.264 78.1484 26.28L80.0684 15.48H87.2684L83.1404 39H76.4204L76.9484 36.024ZM92.5889 15.48H99.3089L98.7809 18.456H99.2609C100.093 17.432 101.069 16.568 102.189 15.864C103.309 15.16 104.685 14.808 106.317 14.808C107.181 14.808 107.901 14.92 108.477 15.144C109.085 15.336 109.581 15.56 109.965 15.816L107.373 22.152C107.053 21.992 106.637 21.832 106.125 21.672C105.613 21.512 104.989 21.432 104.253 21.432C102.429 21.432 100.941 22.056 99.7889 23.304C98.6369 24.552 97.8849 26.184 97.5329 28.2L95.6609 39H88.4609L92.5889 15.48ZM123.318 36.888H122.838C122.102 37.72 121.254 38.408 120.294 38.952C119.334 39.496 118.086 39.768 116.55 39.768C115.334 39.768 114.246 39.576 113.286 39.192C112.326 38.808 111.494 38.28 110.79 37.608C110.118 36.936 109.59 36.152 109.206 35.256C108.854 34.36 108.678 33.384 108.678 32.328C108.678 29.64 109.654 27.544 111.606 26.04C113.558 24.504 116.198 23.736 119.526 23.736C120.646 23.736 121.686 23.832 122.646 24.024C123.606 24.216 124.534 24.44 125.43 24.696L125.574 24.072C125.638 23.752 125.67 23.528 125.67 23.4C125.67 22.536 125.286 21.816 124.518 21.24C123.75 20.664 122.742 20.376 121.494 20.376C120.31 20.376 119.254 20.6 118.326 21.048C117.43 21.496 116.662 22.088 116.022 22.824L111.414 19.464C112.758 17.8 114.39 16.6 116.31 15.864C118.23 15.096 120.262 14.712 122.406 14.712C125.766 14.712 128.326 15.512 130.086 17.112C131.846 18.68 132.726 20.744 132.726 23.304C132.726 23.688 132.694 24.088 132.63 24.504C132.598 24.888 132.55 25.304 132.486 25.752L130.134 39H122.934L123.318 36.888ZM124.566 29.736C123.094 29.128 121.574 28.824 120.006 28.824C118.822 28.824 117.846 29.064 117.078 29.544C116.31 30.024 115.926 30.776 115.926 31.8C115.926 32.632 116.23 33.272 116.838 33.72C117.478 34.168 118.262 34.392 119.19 34.392C119.894 34.392 120.55 34.264 121.158 34.008C121.798 33.72 122.342 33.352 122.79 32.904C123.27 32.456 123.654 31.96 123.942 31.416C124.262 30.84 124.47 30.28 124.566 29.736ZM139.39 39.288C138.11 39.288 137.022 38.84 136.126 37.944C135.23 37.048 134.782 35.96 134.782 34.68C134.782 33.4 135.23 32.312 136.126 31.416C137.022 30.52 138.11 30.072 139.39 30.072C140.67 30.072 141.758 30.52 142.654 31.416C143.55 32.312 143.998 33.4 143.998 34.68C143.998 35.96 143.55 37.048 142.654 37.944C141.758 38.84 140.67 39.288 139.39 39.288Z"/>
</mask>
<path d="M16.1575 11.736L15.0055 18.264H28.6375L27.3415 25.368H13.7095L12.5575 31.896H27.7255L26.4775 39H3.82153L9.91753 4.63202H32.5735L31.3255 11.736H16.1575ZM48.5178 36.408H48.0378C47.4618 37.24 46.6138 38.008 45.4938 38.712C44.3738 39.416 42.8858 39.768 41.0298 39.768C39.6218 39.768 38.3258 39.48 37.1418 38.904C35.9578 38.328 34.9338 37.544 34.0698 36.552C33.2058 35.528 32.5338 34.344 32.0538 33C31.5738 31.656 31.3338 30.2 31.3338 28.632C31.3338 26.776 31.6378 25.016 32.2458 23.352C32.8858 21.656 33.7818 20.168 34.9338 18.888C36.0858 17.608 37.4618 16.6 39.0618 15.864C40.6618 15.096 42.4538 14.712 44.4378 14.712C46.0058 14.712 47.4298 15.048 48.7098 15.72C49.9898 16.36 50.8858 17.144 51.3978 18.072H51.8778V14.712L53.6538 4.63202H60.8538L54.8058 39H48.0858L48.5178 36.408ZM43.9098 33.048C44.6778 33.048 45.4458 32.904 46.2138 32.616C46.9818 32.328 47.6538 31.912 48.2298 31.368C48.8378 30.792 49.3178 30.104 49.6698 29.304C50.0538 28.472 50.2458 27.512 50.2458 26.424C50.2458 24.984 49.7498 23.8 48.7578 22.872C47.7978 21.912 46.5178 21.432 44.9178 21.432C43.9578 21.432 43.0778 21.624 42.2778 22.008C41.4778 22.36 40.8058 22.84 40.2618 23.448C39.7178 24.056 39.2858 24.76 38.9658 25.56C38.6778 26.36 38.5338 27.192 38.5338 28.056C38.5338 29.592 39.0298 30.808 40.0218 31.704C41.0458 32.6 42.3418 33.048 43.9098 33.048ZM76.9484 36.024H76.4684C75.6364 37.272 74.5644 38.216 73.2524 38.856C71.9404 39.464 70.4844 39.768 68.8844 39.768C67.6364 39.768 66.5484 39.56 65.6204 39.144C64.6924 38.728 63.9084 38.168 63.2684 37.464C62.6604 36.76 62.1964 35.96 61.8764 35.064C61.5884 34.136 61.4444 33.176 61.4444 32.184C61.4444 31.736 61.4604 31.304 61.4924 30.888C61.5564 30.44 61.6204 29.976 61.6844 29.496L64.1804 15.48H71.3804L69.0284 28.68C68.9964 28.808 68.9644 29 68.9324 29.256C68.9324 29.48 68.9324 29.688 68.9324 29.88C68.9324 30.712 69.1724 31.448 69.6524 32.088C70.1644 32.728 70.9484 33.048 72.0044 33.048C73.8604 33.048 75.2524 32.424 76.1804 31.176C77.1404 29.896 77.7964 28.264 78.1484 26.28L80.0684 15.48H87.2684L83.1404 39H76.4204L76.9484 36.024ZM92.5889 15.48H99.3089L98.7809 18.456H99.2609C100.093 17.432 101.069 16.568 102.189 15.864C103.309 15.16 104.685 14.808 106.317 14.808C107.181 14.808 107.901 14.92 108.477 15.144C109.085 15.336 109.581 15.56 109.965 15.816L107.373 22.152C107.053 21.992 106.637 21.832 106.125 21.672C105.613 21.512 104.989 21.432 104.253 21.432C102.429 21.432 100.941 22.056 99.7889 23.304C98.6369 24.552 97.8849 26.184 97.5329 28.2L95.6609 39H88.4609L92.5889 15.48ZM123.318 36.888H122.838C122.102 37.72 121.254 38.408 120.294 38.952C119.334 39.496 118.086 39.768 116.55 39.768C115.334 39.768 114.246 39.576 113.286 39.192C112.326 38.808 111.494 38.28 110.79 37.608C110.118 36.936 109.59 36.152 109.206 35.256C108.854 34.36 108.678 33.384 108.678 32.328C108.678 29.64 109.654 27.544 111.606 26.04C113.558 24.504 116.198 23.736 119.526 23.736C120.646 23.736 121.686 23.832 122.646 24.024C123.606 24.216 124.534 24.44 125.43 24.696L125.574 24.072C125.638 23.752 125.67 23.528 125.67 23.4C125.67 22.536 125.286 21.816 124.518 21.24C123.75 20.664 122.742 20.376 121.494 20.376C120.31 20.376 119.254 20.6 118.326 21.048C117.43 21.496 116.662 22.088 116.022 22.824L111.414 19.464C112.758 17.8 114.39 16.6 116.31 15.864C118.23 15.096 120.262 14.712 122.406 14.712C125.766 14.712 128.326 15.512 130.086 17.112C131.846 18.68 132.726 20.744 132.726 23.304C132.726 23.688 132.694 24.088 132.63 24.504C132.598 24.888 132.55 25.304 132.486 25.752L130.134 39H122.934L123.318 36.888ZM124.566 29.736C123.094 29.128 121.574 28.824 120.006 28.824C118.822 28.824 117.846 29.064 117.078 29.544C116.31 30.024 115.926 30.776 115.926 31.8C115.926 32.632 116.23 33.272 116.838 33.72C117.478 34.168 118.262 34.392 119.19 34.392C119.894 34.392 120.55 34.264 121.158 34.008C121.798 33.72 122.342 33.352 122.79 32.904C123.27 32.456 123.654 31.96 123.942 31.416C124.262 30.84 124.47 30.28 124.566 29.736ZM139.39 39.288C138.11 39.288 137.022 38.84 136.126 37.944C135.23 37.048 134.782 35.96 134.782 34.68C134.782 33.4 135.23 32.312 136.126 31.416C137.022 30.52 138.11 30.072 139.39 30.072C140.67 30.072 141.758 30.52 142.654 31.416C143.55 32.312 143.998 33.4 143.998 34.68C143.998 35.96 143.55 37.048 142.654 37.944C141.758 38.84 140.67 39.288 139.39 39.288Z" stroke="#3A578D" stroke-width="2" mask="url(#path-3-inside-1_491_380)"/>
</svg>
