<svg width="37" height="37" viewBox="0 0 37 37" fill="none" xmlns="http://www.w3.org/2000/svg">
<path d="M34.6258 9.25C33.4387 9.78958 32.1592 10.1442 30.8333 10.3137C32.19 9.49666 33.2383 8.20166 33.7317 6.64458C32.4521 7.41541 31.0337 7.955 29.5383 8.26333C28.3204 6.9375 26.6092 6.16666 24.6667 6.16666C21.0437 6.16666 18.0837 9.12666 18.0837 12.7804C18.0837 13.3046 18.1454 13.8133 18.2533 14.2912C12.765 14.0137 7.87791 11.3775 4.62499 7.38458C4.05458 8.35583 3.73083 9.49666 3.73083 10.6992C3.73083 12.9962 4.88708 15.0312 6.67541 16.1875C5.58083 16.1875 4.56333 15.8792 3.66916 15.4167V15.4629C3.66916 18.6696 5.95083 21.3521 8.97249 21.9533C8.00254 22.2199 6.9838 22.2569 5.99708 22.0612C6.4158 23.3755 7.23586 24.5255 8.34198 25.3495C9.44809 26.1736 10.7846 26.6303 12.1637 26.6554C9.82607 28.5062 6.92826 29.5066 3.94666 29.4921C3.42249 29.4921 2.89833 29.4612 2.37416 29.3996C5.30333 31.2804 8.78749 32.375 12.5183 32.375C24.6667 32.375 31.3421 22.2925 31.3421 13.5512C31.3421 13.2583 31.3421 12.9808 31.3267 12.6879C32.6217 11.7629 33.7317 10.5912 34.6258 9.25Z" fill="black"/>
</svg>
