<svg width="37" height="37" viewBox="0 0 37 37" fill="none" xmlns="http://www.w3.org/2000/svg">
<path d="M17.0054 5H29.9383C30.9008 5 31.6807 5.77983 31.6807 6.74232V20.6521C31.6807 21.6166 30.9008 22.3965 29.9383 22.3965H19.3654M10.4363 12.1847C11.3891 12.1847 12.3028 11.8063 12.9765 11.1326C13.6502 10.4589 14.0287 9.54513 14.0287 8.59237C14.0287 7.63962 13.6502 6.72588 12.9765 6.05218C12.3028 5.37848 11.3891 5 10.4363 5C9.48355 5 8.56982 5.37848 7.89611 6.05218C7.22241 6.72588 6.84393 7.63962 6.84393 8.59237C6.84393 9.54513 7.22241 10.4589 7.89611 11.1326C8.56982 11.8063 9.48355 12.1847 10.4363 12.1847Z" stroke="#8672FF" stroke-width="2.0522" stroke-linecap="round" stroke-linejoin="round"/>
<path d="M22.4437 15.3164C22.4437 14.1528 21.4997 13.2088 20.3361 13.2088H10.4363C8.99465 13.2093 7.61223 13.7823 6.59285 14.8016C5.57347 15.821 5.00054 17.2034 5 18.6451V23.4698H7.32924L8.10703 31.6786H12.7655L14.555 17.4261H20.3361C21.4997 17.4261 22.4437 16.482 22.4437 15.3164Z" stroke="#8672FF" stroke-width="2.0522" stroke-linecap="round" stroke-linejoin="round"/>
</svg>
