<svg width="37" height="37" viewBox="0 0 37 37" fill="none" xmlns="http://www.w3.org/2000/svg">
<path d="M9.25 12.7188C9.25 12.2632 9.33972 11.8122 9.51404 11.3913C9.68836 10.9705 9.94387 10.5881 10.266 10.266C10.5881 9.94387 10.9705 9.68836 11.3913 9.51404C11.8122 9.33972 12.2632 9.25 12.7188 9.25C13.1743 9.25 13.6253 9.33972 14.0462 9.51404C14.467 9.68836 14.8494 9.94387 15.1715 10.266C15.4936 10.5881 15.7491 10.9705 15.9235 11.3913C16.0978 11.8122 16.1875 12.2632 16.1875 12.7188C16.1875 13.6387 15.822 14.521 15.1715 15.1715C14.521 15.822 13.6387 16.1875 12.7188 16.1875C11.7988 16.1875 10.9165 15.822 10.266 15.1715C9.61546 14.521 9.25 13.6387 9.25 12.7188ZM12.7188 6.9375C11.1855 6.9375 9.71498 7.54659 8.63079 8.63079C7.54659 9.71498 6.9375 11.1855 6.9375 12.7188C6.9375 14.252 7.54659 15.7225 8.63079 16.8067C9.71498 17.8909 11.1855 18.5 12.7188 18.5C14.252 18.5 15.7225 17.8909 16.8067 16.8067C17.8909 15.7225 18.5 14.252 18.5 12.7188C18.5 11.1855 17.8909 9.71498 16.8067 8.63079C15.7225 7.54659 14.252 6.9375 12.7188 6.9375ZM24.2812 13.875C24.2812 13.2617 24.5249 12.6735 24.9586 12.2398C25.3922 11.8061 25.9804 11.5625 26.5938 11.5625C27.2071 11.5625 27.7953 11.8061 28.2289 12.2398C28.6626 12.6735 28.9062 13.2617 28.9062 13.875C28.9062 14.4883 28.6626 15.0765 28.2289 15.5102C27.7953 15.9439 27.2071 16.1875 26.5938 16.1875C25.9804 16.1875 25.3922 15.9439 24.9586 15.5102C24.5249 15.0765 24.2812 14.4883 24.2812 13.875ZM26.5938 9.25C25.3671 9.25 24.1907 9.73728 23.3234 10.6046C22.456 11.472 21.9688 12.6484 21.9688 13.875C21.9688 15.1016 22.456 16.278 23.3234 17.1454C24.1907 18.0127 25.3671 18.5 26.5938 18.5C27.8204 18.5 28.9968 18.0127 29.8641 17.1454C30.7315 16.278 31.2188 15.1016 31.2188 13.875C31.2188 12.6484 30.7315 11.472 29.8641 10.6046C28.9968 9.73728 27.8204 9.25 26.5938 9.25ZM3.46875 24.2812C3.46875 23.3613 3.83421 22.479 4.48472 21.8285C5.13524 21.178 6.01753 20.8125 6.9375 20.8125H18.5C19.42 20.8125 20.3023 21.178 20.9528 21.8285C21.6033 22.479 21.9687 23.3613 21.9688 24.2812V24.5403C21.9683 24.6463 21.9606 24.7521 21.9456 24.8571C21.8141 25.9782 21.3969 27.0468 20.7339 27.9604C19.4689 29.7064 17.0639 31.2188 12.7188 31.2188C8.37356 31.2188 5.97088 29.7064 4.70131 27.9604C4.03911 27.0466 3.62267 25.978 3.49187 24.8571C3.48054 24.7518 3.47283 24.6461 3.46875 24.5403V24.2812ZM5.78125 24.4894V24.5056L5.7905 24.6189C5.87976 25.3348 6.14864 26.0166 6.57213 26.6007C7.326 27.6367 8.96788 28.9062 12.7188 28.9062C16.4696 28.9062 18.1115 27.6367 18.8654 26.6007C19.2889 26.0166 19.5577 25.3348 19.647 24.6189L19.6562 24.5032V24.2812C19.6562 23.9746 19.5344 23.6805 19.3176 23.4637C19.1008 23.2468 18.8067 23.125 18.5 23.125H6.9375C6.63084 23.125 6.33675 23.2468 6.11991 23.4637C5.90307 23.6805 5.78125 23.9746 5.78125 24.2812V24.4894ZM26.5938 28.9062C25.234 28.9062 24.1194 28.6981 23.2175 28.3559C23.5848 27.6752 23.8652 26.9511 24.0523 26.2006C24.6721 26.4342 25.4953 26.5938 26.5938 26.5938C29.1814 26.5938 30.2429 25.7104 30.71 25.0536C30.9852 24.6717 31.1586 24.2261 31.2141 23.7586L31.2188 23.6939C31.2163 23.5422 31.1543 23.3975 31.0462 23.291C30.938 23.1846 30.7924 23.125 30.6406 23.125H24.1656C23.9942 22.2867 23.6387 21.4968 23.125 20.8125H30.6406C32.2362 20.8125 33.5312 22.1075 33.5312 23.7031V23.7424C33.5297 23.8267 33.5235 23.9109 33.5127 23.9945C33.4173 24.8618 33.1003 25.69 32.5924 26.3995C31.6165 27.7662 29.7873 28.9062 26.5938 28.9062Z" fill="#8672FF"/>
</svg>
