<svg width="37" height="37" viewBox="0 0 37 37" fill="none" xmlns="http://www.w3.org/2000/svg">
<path d="M12.025 3.08334H24.975C29.9083 3.08334 33.9167 7.09167 33.9167 12.025V24.975C33.9167 27.3465 32.9746 29.6208 31.2977 31.2977C29.6208 32.9746 27.3465 33.9167 24.975 33.9167H12.025C7.09166 33.9167 3.08333 29.9083 3.08333 24.975V12.025C3.08333 9.65353 4.02539 7.37918 5.70228 5.70229C7.37917 4.0254 9.65352 3.08334 12.025 3.08334ZM11.7167 6.16667C10.2447 6.16667 8.83305 6.7514 7.79222 7.79223C6.75139 8.83305 6.16666 10.2447 6.16666 11.7167V25.2833C6.16666 28.3513 8.64874 30.8333 11.7167 30.8333H25.2833C26.7553 30.8333 28.1669 30.2486 29.2078 29.2078C30.2486 28.167 30.8333 26.7553 30.8333 25.2833V11.7167C30.8333 8.64875 28.3512 6.16667 25.2833 6.16667H11.7167ZM26.5937 8.47917C27.1048 8.47917 27.595 8.6822 27.9564 9.0436C28.3178 9.405 28.5208 9.89516 28.5208 10.4063C28.5208 10.9173 28.3178 11.4075 27.9564 11.7689C27.595 12.1303 27.1048 12.3333 26.5937 12.3333C26.0827 12.3333 25.5925 12.1303 25.2311 11.7689C24.8697 11.4075 24.6667 10.9173 24.6667 10.4063C24.6667 9.89516 24.8697 9.405 25.2311 9.0436C25.5925 8.6822 26.0827 8.47917 26.5937 8.47917ZM18.5 10.7917C20.5444 10.7917 22.505 11.6038 23.9506 13.0494C25.3962 14.495 26.2083 16.4556 26.2083 18.5C26.2083 20.5444 25.3962 22.505 23.9506 23.9506C22.505 25.3962 20.5444 26.2083 18.5 26.2083C16.4556 26.2083 14.495 25.3962 13.0494 23.9506C11.6038 22.505 10.7917 20.5444 10.7917 18.5C10.7917 16.4556 11.6038 14.495 13.0494 13.0494C14.495 11.6038 16.4556 10.7917 18.5 10.7917ZM18.5 13.875C17.2734 13.875 16.097 14.3623 15.2296 15.2296C14.3623 16.097 13.875 17.2734 13.875 18.5C13.875 19.7266 14.3623 20.903 15.2296 21.7704C16.097 22.6377 17.2734 23.125 18.5 23.125C19.7266 23.125 20.903 22.6377 21.7704 21.7704C22.6377 20.903 23.125 19.7266 23.125 18.5C23.125 17.2734 22.6377 16.097 21.7704 15.2296C20.903 14.3623 19.7266 13.875 18.5 13.875Z" fill="#8672FF"/>
</svg>
