<svg width="37" height="37" viewBox="0 0 37 37" fill="none" xmlns="http://www.w3.org/2000/svg">
<path fill-rule="evenodd" clip-rule="evenodd" d="M16.6371 5.12531C16.7217 5.4989 16.6544 5.89078 16.4502 6.2148C16.2459 6.53882 15.9213 6.76846 15.5478 6.85324C15.2643 6.91774 14.9833 6.99292 14.7055 7.07862C14.5242 7.13459 14.3336 7.1543 14.1447 7.13664C13.9558 7.11897 13.7723 7.06427 13.6045 6.97566C13.4367 6.88705 13.2881 6.76626 13.167 6.6202C13.0459 6.47413 12.9548 6.30564 12.8988 6.12436C12.8428 5.94307 12.8231 5.75254 12.8408 5.56364C12.8584 5.37473 12.9131 5.19116 13.0018 5.02339C13.0904 4.85563 13.2112 4.70696 13.3572 4.58588C13.5033 4.46479 13.6718 4.37367 13.8531 4.3177C14.1998 4.20982 14.5514 4.11591 14.9077 4.03597C15.0928 3.99388 15.2844 3.98867 15.4715 4.02065C15.6586 4.05262 15.8375 4.12114 15.9981 4.22231C16.1587 4.32347 16.2978 4.45529 16.4075 4.61023C16.5171 4.76518 16.5951 4.9402 16.6371 5.12531ZM19.5988 5.12531C19.6836 4.75177 19.9133 4.42719 20.2373 4.22291C20.5613 4.01864 20.9532 3.95139 21.3268 4.03597C27.7617 5.49517 32.5669 11.2482 32.5669 18.1252C32.5669 26.1046 26.0973 32.5727 18.1194 32.5727C11.2409 32.5727 5.48794 27.7689 4.02874 21.334C3.95385 20.9641 4.02665 20.5796 4.23159 20.2627C4.43653 19.9458 4.75733 19.7217 5.12538 19.6382C5.49344 19.5548 5.87952 19.6187 6.20107 19.8163C6.52262 20.0138 6.7541 20.3294 6.84601 20.6954C7.30575 22.709 8.29669 24.5627 9.71572 26.0635C11.1348 27.5643 12.93 28.6574 14.9148 29.2291C16.8995 29.8009 19.0012 29.8303 21.0012 29.3144C23.0012 28.7984 24.8263 27.756 26.2868 26.2955C27.7473 24.835 28.7898 23.0098 29.3057 21.0099C29.8216 19.0099 29.7922 16.9082 29.2205 14.9234C28.6488 12.9387 27.5556 11.1434 26.0548 9.72439C24.554 8.30536 22.7004 7.31442 20.6867 6.85468C20.3132 6.7696 19.9887 6.53961 19.7846 6.21529C19.5806 5.89098 19.5138 5.4989 19.5988 5.12531ZM10.3365 7.6074C10.4657 7.74651 10.5663 7.90973 10.6323 8.08772C10.6984 8.26571 10.7288 8.45498 10.7217 8.64471C10.7146 8.83444 10.6701 9.0209 10.5909 9.19345C10.5117 9.36599 10.3992 9.52122 10.26 9.65028C10.0461 9.84773 9.8405 10.0529 9.64305 10.2657C9.3806 10.5388 9.0214 10.6979 8.6428 10.7088C8.26419 10.7196 7.89647 10.5814 7.61879 10.3238C7.34112 10.0662 7.17571 9.70987 7.15817 9.33151C7.14064 8.95316 7.27239 8.58305 7.52504 8.30088C7.77065 8.03504 8.02685 7.77836 8.29365 7.53082C8.43277 7.40162 8.59599 7.3011 8.77398 7.23501C8.95197 7.16893 9.14124 7.13858 9.33096 7.14569C9.52069 7.1528 9.70716 7.19724 9.8797 7.27646C10.0522 7.35568 10.2075 7.46814 10.3365 7.6074ZM18.118 9.45668C18.5011 9.45668 18.8686 9.60889 19.1396 9.87984C19.4105 10.1508 19.5627 10.5183 19.5627 10.9014V17.5271L23.4737 21.438C23.7368 21.7105 23.8825 22.0754 23.8792 22.4543C23.8759 22.8331 23.7239 23.1954 23.4561 23.4633C23.1882 23.7312 22.8258 23.8831 22.447 23.8864C22.0682 23.8897 21.7033 23.7441 21.4308 23.4809L17.0965 19.1466C16.8256 18.8758 16.6733 18.5083 16.6732 18.1252V10.9014C16.6732 10.5183 16.8254 10.1508 17.0964 9.87984C17.3673 9.60889 17.7348 9.45668 18.118 9.45668ZM6.11641 12.9067C6.4825 13.0196 6.78876 13.2733 6.96785 13.612C7.14693 13.9506 7.18418 14.3466 7.07139 14.7127C6.9857 14.9905 6.91052 15.2715 6.84601 15.555C6.7541 15.921 6.52262 16.2365 6.20107 16.4341C5.87952 16.6317 5.49344 16.6956 5.12538 16.6121C4.75733 16.5287 4.43653 16.3046 4.23159 15.9877C4.02665 15.6708 3.95385 15.2863 4.02874 14.9164C4.10965 14.56 4.20356 14.2085 4.31047 13.8617C4.42336 13.4956 4.67703 13.1894 5.0157 13.0103C5.35436 12.8312 5.75029 12.794 6.11641 12.9067Z" fill="#8672FF"/>
</svg>
