<svg width="37" height="37" viewBox="0 0 37 37" fill="none" xmlns="http://www.w3.org/2000/svg">
<path d="M15.4167 23.125L23.4179 18.5L15.4167 13.875V23.125ZM33.2383 11.0538C33.4387 11.7783 33.5775 12.7496 33.67 13.9829C33.7779 15.2163 33.8242 16.28 33.8242 17.205L33.9167 18.5C33.9167 21.8763 33.67 24.3583 33.2383 25.9463C32.8529 27.3338 31.9587 28.2279 30.5712 28.6133C29.8467 28.8138 28.5208 28.9525 26.4858 29.045C24.4817 29.1529 22.6471 29.1992 20.9512 29.1992L18.5 29.2917C12.0404 29.2917 8.01666 29.045 6.42874 28.6133C5.04125 28.2279 4.14708 27.3338 3.76166 25.9463C3.56124 25.2217 3.4225 24.2504 3.33 23.0171C3.22208 21.7838 3.17583 20.72 3.17583 19.795L3.08333 18.5C3.08333 15.1238 3.32999 12.6417 3.76166 11.0538C4.14708 9.66625 5.04125 8.77209 6.42874 8.38667C7.15333 8.18625 8.47916 8.0475 10.5142 7.955C12.5183 7.84709 14.3529 7.80084 16.0487 7.80084L18.5 7.70834C24.9596 7.70834 28.9833 7.955 30.5712 8.38667C31.9587 8.77209 32.8529 9.66625 33.2383 11.0538Z" fill="#8672FF"/>
</svg>
