<svg width="37" height="37" viewBox="0 0 37 37" fill="none" xmlns="http://www.w3.org/2000/svg">
<path d="M28.9062 21.9687C27.8842 21.9682 26.8911 22.3079 26.0836 22.9342L22.7434 20.3327C22.9956 19.7546 23.1255 19.1307 23.125 18.5C23.125 18.393 23.125 18.2861 23.1134 18.1806L25.0256 17.5432C25.6305 18.4762 26.5514 19.16 27.6194 19.4694C28.6875 19.7788 29.8313 19.693 30.8412 19.2278C31.8512 18.7626 32.6598 17.9491 33.1188 16.9363C33.5778 15.9235 33.6566 14.7792 33.3407 13.713C33.0247 12.6469 32.3353 11.7303 31.3986 11.131C30.4619 10.5318 29.3407 10.2901 28.2403 10.4502C27.1399 10.6103 26.1341 11.1615 25.407 12.0029C24.6799 12.8442 24.2802 13.9193 24.2812 15.0312C24.2812 15.1382 24.2812 15.2452 24.2928 15.3507L22.3807 15.988C21.9615 15.34 21.3868 14.8072 20.709 14.4381C20.0312 14.069 19.2718 13.8755 18.5 13.875C18.2448 13.8755 17.9901 13.8968 17.7383 13.9386L16.7497 11.707C17.6034 11.025 18.1879 10.0627 18.3999 8.99083C18.6118 7.91893 18.4374 6.80661 17.9075 5.85103C17.3777 4.89544 16.5266 4.1583 15.5052 3.77026C14.4838 3.38221 13.358 3.36833 12.3273 3.73106C11.2966 4.09379 10.4276 4.80972 9.8744 5.75195C9.32115 6.69417 9.11935 7.80185 9.30478 8.87865C9.49021 9.95544 10.0509 10.9318 10.8874 11.6347C11.724 12.3376 12.7824 12.7217 13.875 12.7187C14.1302 12.7182 14.3849 12.6969 14.6367 12.6552L15.6253 14.8809C14.7869 15.5445 14.2051 16.4785 13.9791 17.5236C13.7532 18.5686 13.8973 19.6596 14.3866 20.6102L10.6707 23.9113C9.7356 23.2808 8.60263 23.0131 7.48422 23.1582C6.3658 23.3034 5.33871 23.8515 4.59547 24.6997C3.85223 25.5479 3.44386 26.6381 3.44692 27.7659C3.44997 28.8937 3.86424 29.9817 4.61206 30.8259C5.35989 31.6701 6.38993 32.2126 7.50912 32.3517C8.62831 32.4908 9.75981 32.2169 10.6915 31.5814C11.6232 30.9459 12.2912 29.9925 12.5702 28.8997C12.8492 27.807 12.7201 26.65 12.2071 25.6456L15.923 22.3445C16.7276 22.8863 17.6824 23.1605 18.6518 23.1283C19.6212 23.0962 20.5558 22.7592 21.3227 22.1653L24.6628 24.7669C24.4114 25.3431 24.2815 25.965 24.2812 26.5937C24.2812 27.5085 24.5525 28.4027 25.0607 29.1633C25.5689 29.9238 26.2912 30.5166 27.1363 30.8667C27.9814 31.2167 28.9114 31.3083 29.8085 31.1299C30.7057 30.9514 31.5298 30.5109 32.1766 29.8641C32.8234 29.2173 33.2639 28.3932 33.4424 27.496C33.6208 26.5989 33.5292 25.6689 33.1792 24.8238C32.8291 23.9787 32.2363 23.2564 31.4758 22.7482C30.7152 22.24 29.821 21.9687 28.9062 21.9687ZM28.9062 12.7187C29.3636 12.7187 29.8107 12.8544 30.191 13.1085C30.5713 13.3626 30.8677 13.7237 31.0427 14.1463C31.2177 14.5688 31.2635 15.0338 31.1743 15.4824C31.0851 15.931 30.8648 16.343 30.5414 16.6664C30.218 16.9898 29.806 17.2101 29.3574 17.2993C28.9088 17.3885 28.4438 17.3427 28.0213 17.1677C27.5987 16.9927 27.2376 16.6963 26.9835 16.316C26.7294 15.9357 26.5937 15.4886 26.5937 15.0312C26.5937 14.4179 26.8374 13.8297 27.2711 13.3961C27.7047 12.9624 28.2929 12.7187 28.9062 12.7187ZM11.5625 8.09375C11.5625 7.63638 11.6981 7.18928 11.9522 6.80899C12.2063 6.4287 12.5675 6.13231 12.99 5.95728C13.4126 5.78225 13.8776 5.73645 14.3261 5.82568C14.7747 5.91491 15.1868 6.13516 15.5102 6.45856C15.8336 6.78197 16.0538 7.19402 16.1431 7.6426C16.2323 8.09118 16.1865 8.55615 16.0115 8.9787C15.8364 9.40126 15.54 9.76242 15.1598 10.0165C14.7795 10.2706 14.3324 10.4062 13.875 10.4062C13.2617 10.4062 12.6735 10.1626 12.2398 9.72893C11.8061 9.29526 11.5625 8.70706 11.5625 8.09375ZM8.09375 30.0625C7.63638 30.0625 7.18928 29.9269 6.80899 29.6728C6.4287 29.4187 6.1323 29.0575 5.95728 28.635C5.78225 28.2124 5.73645 27.7474 5.82568 27.2989C5.91491 26.8503 6.13515 26.4382 6.45856 26.1148C6.78197 25.7914 7.19402 25.5712 7.6426 25.4819C8.09118 25.3927 8.55615 25.4385 8.9787 25.6135C9.40126 25.7886 9.76242 26.085 10.0165 26.4652C10.2706 26.8455 10.4062 27.2926 10.4062 27.75C10.4062 28.3633 10.1626 28.9515 9.72893 29.3852C9.29525 29.8189 8.70706 30.0625 8.09375 30.0625ZM16.1875 18.5C16.1875 18.0426 16.3231 17.5955 16.5772 17.2152C16.8313 16.835 17.1925 16.5386 17.615 16.3635C18.0376 16.1885 18.5026 16.1427 18.9511 16.2319C19.3997 16.3212 19.8118 16.5414 20.1352 16.8648C20.4586 17.1882 20.6788 17.6003 20.7681 18.0489C20.8573 18.4974 20.8115 18.9624 20.6365 19.385C20.4614 19.8075 20.165 20.1687 19.7848 20.4228C19.4045 20.6769 18.9574 20.8125 18.5 20.8125C17.8867 20.8125 17.2985 20.5689 16.8648 20.1352C16.4311 19.7015 16.1875 19.1133 16.1875 18.5ZM28.9062 28.9062C28.4489 28.9062 28.0018 28.7706 27.6215 28.5165C27.2412 28.2624 26.9448 27.9013 26.7698 27.4787C26.5947 27.0562 26.549 26.5912 26.6382 26.1426C26.7274 25.694 26.9477 25.282 27.2711 24.9586C27.5945 24.6352 28.0065 24.4149 28.4551 24.3257C28.9037 24.2365 29.3687 24.2823 29.7912 24.4573C30.2138 24.6323 30.5749 24.9287 30.829 25.309C31.0831 25.6893 31.2187 26.1364 31.2187 26.5937C31.2187 27.2071 30.9751 27.7953 30.5414 28.2289C30.1078 28.6626 29.5196 28.9062 28.9062 28.9062Z" fill="#8672FF"/>
</svg>
